# Wavefront Obj file
# 
# verts: 153 uv-s: 232
mtllib Hammer.mtl

g Hammer_Low-Poly

v -157.525009 106.867775 79.293945
v -157.525009 245.455688 -59.293926
v 42.089485 101.161705 -54.000000
v -157.525009 245.455688 59.293945
v -142.869415 86.867760 59.293945
v 42.089485 211.161743 -65.000000
v -157.525009 86.867760 59.293945
v -157.525009 86.867760 -59.293926
v 42.089485 231.161713 54.000000
v 73.613678 183.661743 -37.500000
v 42.089485 121.161720 -65.000000
v 73.613678 128.661697 -20.999998
v 42.089485 101.161705 54.000000
v 73.613678 203.661743 21.000002
v 42.089485 231.161713 -54.000000
v 73.613678 148.661713 37.500000
v 42.089485 211.161743 65.000000
v 42.089485 121.161720 65.000000
v -142.869415 225.455627 79.293945
v -157.525009 225.455627 79.293945
v 139.642853 216.024200 -69.862503
v 73.613678 148.661713 -37.500000
v 139.642853 96.299210 -49.862492
v 73.613678 128.661697 21.000002
v 139.642853 236.024231 49.862507
v 73.613678 203.661743 -20.999998
v 139.642853 116.299232 69.862503
v 73.613678 183.661743 37.500000
v 142.869415 225.455627 -79.293945
v 139.642853 116.299232 -69.862503
v 142.869415 86.867760 -59.293926
v 139.642853 96.299210 49.862507
v 142.869415 245.455688 59.293945
v 139.642853 236.024231 -49.862492
v 142.869415 106.867775 79.293945
v 139.642853 216.024200 69.862503
v 157.525009 106.867775 79.293945
v 157.525009 225.455627 79.293945
v 142.869415 225.455627 79.293945
v 157.525009 86.867760 -59.293926
v 157.525009 86.867760 59.293945
v 142.869415 86.867760 59.293945
v 157.525009 245.455688 59.293945
v 157.525009 245.455688 -59.293926
v 142.869415 245.455688 -59.293926
v 157.525009 225.455627 -79.293922
v 157.525009 106.867775 -79.293922
v 142.869415 106.867775 -79.293945
v 20.700001 101.161705 35.853443
v 42.089485 101.161705 0.000000
v -142.869415 245.455688 -59.293926
v 20.700001 101.161705 -35.853443
v -139.642853 216.024200 69.862503
v 0.000000 -204.800842 0.000000
v 12.000000 -151.371002 0.000000
v 6.000000 -151.371002 10.392304
v -6.000000 -151.371002 10.392304
v -12.000000 -151.371002 0.000000
v -6.000000 -151.371002 -10.392304
v 6.000000 -151.371002 -10.392304
v 12.000000 41.679379 0.000000
v -12.000000 41.679379 0.000000
v -6.000000 41.679379 10.392304
v 6.000000 41.679379 10.392304
v -6.000000 41.679379 -10.392304
v 6.000000 41.679379 -10.392304
v 15.806823 -201.840668 13.841872
v -21.075766 -201.840668 0.000000
v 28.944273 -192.350098 0.000000
v 21.708208 -192.350098 18.433487
v -28.944273 -192.350098 0.000000
v -21.708208 -192.350098 -18.433487
v 15.806823 -201.840668 -13.841872
v -21.708208 -192.350098 18.433487
v -9.000000 43.179070 15.588456
v -18.000000 43.179070 0.000000
v -9.000000 43.179070 -15.588456
v 9.000000 43.179070 15.588456
v 18.000000 69.807930 0.000000
v 9.000000 69.807930 15.588456
v 18.000000 43.179070 0.000000
v -18.000000 69.807930 0.000000
v 9.000000 43.179070 -15.588456
v 9.000000 69.807930 -15.588456
v 12.000000 -30.445633 0.000000
v -9.000000 69.807930 15.588456
v -6.000000 -30.445633 10.392304
v -12.000000 -30.445633 0.000000
v -6.000000 -30.445633 -10.392304
v -9.000000 69.807930 -15.588456
v 6.000000 -30.445633 10.392304
v 6.000000 -78.555389 10.392304
v -6.000000 -78.555389 10.392304
v -12.000000 -78.555389 0.000000
v -6.000000 -78.555389 -10.392304
v 6.000000 -78.555389 -10.392304
v 6.000000 -30.445633 -10.392304
v 9.000000 -32.851128 15.588456
v -9.000000 -32.851128 15.588456
v -18.000000 -32.851128 0.000000
v -9.000000 -32.851128 -15.588456
v 9.000000 -32.851128 -15.588456
v 18.000000 -76.149918 0.000000
v 12.000000 -78.555389 0.000000
v 18.000000 -32.851128 0.000000
v -18.000000 -76.149918 0.000000
v -9.000000 -76.149918 15.588456
v 9.000000 -76.149918 -15.588456
v 25.920000 -168.873474 0.000000
v 19.440001 -168.873474 16.461411
v -19.440001 -168.873474 16.461411
v 9.000000 -76.149918 15.588456
v -19.440001 -168.873474 -16.461411
v -9.000000 -76.149918 -15.588456
v -25.920000 -168.873474 0.000000
v 19.440001 -168.873474 -16.461411
v -157.525009 225.455627 -79.293922
v -157.525009 106.867775 -79.293922
v -142.869415 106.867775 -79.293945
v 21.708208 -192.350098 -18.433487
v 21.075766 -201.840668 0.000000
v -20.700001 101.161705 35.853443
v -15.806823 -201.840668 13.841872
v -42.089485 101.161705 0.000000
v -15.806823 -201.840668 -13.841872
v -20.700001 101.161705 -35.853443
v -42.089485 101.161705 -54.000000
v -42.089485 211.161743 -65.000000
v -42.089485 231.161713 54.000000
v -73.613678 183.661743 -37.500000
v -42.089485 121.161720 -65.000000
v -73.613678 128.661697 -20.999998
v -42.089485 101.161705 54.000000
v -73.613678 203.661743 21.000002
v -42.089485 231.161713 -54.000000
v -73.613678 148.661713 37.500000
v -42.089485 211.161743 65.000000
v -42.089485 121.161720 65.000000
v -139.642853 216.024200 -69.862503
v -73.613678 148.661713 -37.500000
v -139.642853 96.299210 -49.862492
v -73.613678 128.661697 21.000002
v -139.642853 236.024231 49.862507
v -73.613678 203.661743 -20.999998
v -139.642853 116.299232 69.862503
v -73.613678 183.661743 37.500000
v -142.869415 225.455627 -79.293945
v -139.642853 116.299232 -69.862503
v -142.869415 86.867760 -59.293926
v -139.642853 96.299210 49.862507
v -142.869415 245.455688 59.293945
v -139.642853 236.024231 -49.862492
v -142.869415 106.867775 79.293945
# 153 positions

vt 0.251079 0.706649
vt 0.268599 0.720082
vt 0.274388 0.710969
vt 0.255054 0.700360
vt 0.982226 0.041903
vt 0.948690 0.008469
vt 0.750142 0.008769
vt 0.716708 0.042305
vt 0.287898 0.730931
vt 0.293669 0.724357
vt 0.955876 0.795590
vt 0.938231 0.753809
vt 0.959326 0.745227
vt 0.972474 0.784527
vt 0.526270 0.208124
vt 0.545144 0.246185
vt 0.561041 0.234168
vt 0.543730 0.198948
vt 0.774777 0.722203
vt 0.836819 0.673415
vt 0.836914 0.611200
vt 0.775021 0.562223
vt 0.575006 0.628845
vt 0.758960 0.806683
vt 0.825591 0.835546
vt 0.833581 0.897253
vt 0.761939 0.923772
vt 0.341670 0.173742
vt 0.403713 0.124954
vt 0.403807 0.062739
vt 0.341914 0.013762
vt 0.354148 0.387249
vt 0.426166 0.361345
vt 0.423234 0.300377
vt 0.357342 0.269071
vt 0.945678 0.716335
vt 0.945905 0.568613
vt 0.957615 0.941597
vt 0.512573 0.167874
vt 0.512798 0.020151
vt 0.556492 0.395295
vt 0.960423 0.730328
vt 0.982132 0.730362
vt 0.982401 0.554698
vt 0.960692 0.554665
vt 0.994958 0.781682
vt 0.992153 0.954986
vt 0.972038 0.951964
vt 0.527318 0.181867
vt 0.549027 0.181900
vt 0.549295 0.006235
vt 0.527585 0.006203
vt 0.572297 0.404864
vt 0.595265 0.407877
vt 0.581675 0.227936
vt 0.542008 0.436001
vt 0.560204 0.442687
vt 0.774899 0.642213
vt 0.743134 0.695274
vt 0.717009 0.240853
vt 0.750545 0.274288
vt 0.949093 0.273987
vt 0.982527 0.240451
vt 0.940090 0.979716
vt 0.959385 0.987762
vt 0.303624 0.744610
vt 0.312626 0.741643
vt 0.232274 0.696940
vt 0.237512 0.689559
vt 0.211983 0.687078
vt 0.216991 0.677537
vt 0.189403 0.679624
vt 0.188110 0.666293
vt 0.359323 0.240817
vt 0.423409 0.258937
vt 0.760393 0.776797
vt 0.827650 0.794630
vt 0.762927 0.953574
vt 0.833076 0.938091
vt 0.354727 0.418764
vt 0.427679 0.402683
vt 0.563602 0.189584
vt 0.983337 0.737896
vt 0.981100 0.994652
vt 0.581845 0.449642
vt 0.266373 0.640324
vt 0.249605 0.628350
vt 0.243464 0.633733
vt 0.260734 0.646783
vt 0.355948 0.527071
vt 0.374666 0.537800
vt 0.386378 0.509124
vt 0.372561 0.500293
vt 0.235724 0.613544
vt 0.227371 0.615510
vt 0.337184 0.515492
vt 0.358102 0.493249
vt 0.318081 0.510098
vt 0.299687 0.503835
vt 0.743296 0.589055
vt 0.400319 0.452358
vt 0.414855 0.428407
vt 0.394833 0.424966
vt 0.374020 0.462124
vt 0.152588 0.832657
vt 0.132557 0.817842
vt 0.388222 0.472559
vt 0.279086 0.658106
vt 0.147528 0.901098
vt 0.111822 0.972221
vt 0.174544 0.990362
vt 0.183044 0.915737
vt 0.197954 0.857624
vt 0.173330 0.848903
vt 0.330658 0.453740
vt 0.368561 0.474157
vt 0.339911 0.444772
vt 0.298606 0.668546
vt 0.320333 0.679525
vt 0.193897 0.869047
vt 0.220555 0.919862
vt 0.219988 0.875618
vt 0.427121 0.444558
vt 0.243636 0.865677
vt 0.220836 0.866604
vt 0.168937 0.856892
vt 0.114219 0.881088
vt 0.144909 0.842324
vt 0.125345 0.823286
vt 0.087045 0.852311
vt 0.057951 0.933598
vt 0.234668 0.988989
vt 0.119865 0.800780
vt 0.284491 0.651015
vt 0.324142 0.669826
vt 0.392491 0.547314
vt 0.303720 0.660876
vt 0.345527 0.686134
vt 0.343664 0.676708
vt 0.320105 0.477201
vt 0.297810 0.469924
vt 0.420693 0.531610
vt 0.407868 0.562017
vt 0.438410 0.547292
vt 0.312460 0.439904
vt 0.382372 0.482760
vt 0.396647 0.489691
vt 0.435362 0.510153
vt 0.457833 0.519092
vt 0.326725 0.430374
vt 0.403787 0.479938
vt 0.438616 0.496162
vt 0.459160 0.500642
vt 0.251296 0.268143
vt 0.244452 0.385506
vt 0.716708 0.316809
vt 0.717009 0.515356
vt 0.982527 0.514954
vt 0.982226 0.316406
vt 0.651267 0.805617
vt 0.654355 0.922664
vt 0.452488 0.791679
vt 0.435515 0.781482
vt 0.447564 0.741721
vt 0.469042 0.749810
vt 0.075015 0.209782
vt 0.057322 0.201501
vt 0.041270 0.237193
vt 0.057412 0.248982
vt 0.650083 0.722013
vt 0.650204 0.642023
vt 0.650326 0.562032
vt 0.588284 0.610821
vt 0.436736 0.651672
vt 0.587779 0.894252
vt 0.579392 0.832667
vt 0.216976 0.173552
vt 0.217220 0.013572
vt 0.155178 0.062360
vt 0.155083 0.124575
vt 0.183809 0.294596
vt 0.173392 0.356197
vt 0.588189 0.673036
vt 0.479423 0.567902
vt 0.479199 0.715625
vt 0.459618 0.938146
vt 0.046318 0.019441
vt 0.046093 0.167163
vt 0.047392 0.395349
vt 0.464412 0.729573
vt 0.464678 0.553908
vt 0.442969 0.553875
vt 0.442702 0.729541
vt 0.445641 0.949388
vt 0.425587 0.953309
vt 0.412833 0.779600
vt 0.031306 0.181111
vt 0.031573 0.005447
vt 0.009864 0.005414
vt 0.009597 0.181078
vt 0.032068 0.404854
vt 0.020766 0.231558
vt 0.009597 0.408197
vt 0.044728 0.441635
vt 0.062451 0.434632
vt 0.681808 0.695181
vt 0.750545 0.548791
vt 0.949093 0.548490
vt 0.948690 0.282972
vt 0.750142 0.283273
vt 0.478481 0.976249
vt 0.459478 0.984875
vt 0.242344 0.415719
vt 0.250722 0.238472
vt 0.652961 0.952458
vt 0.650265 0.775712
vt 0.183176 0.253890
vt 0.579734 0.791246
vt 0.585969 0.934834
vt 0.172216 0.397324
vt 0.037307 0.192930
vt 0.423127 0.735061
vt 0.438042 0.992496
vt 0.023634 0.448909
vt 0.681970 0.588961
vt 0.020380 0.882526
vt 0.111498 0.801439
vt 0.076696 0.821002
vt 0.250904 0.911647
vt 0.296753 0.958395
vt 0.248712 0.874830
vt 0.008368 0.810600
# 232 texture coordinates

vn -0.804658 0.593739 0.000000
vn -0.402329 0.593739 -0.696854
vn 1.000000 0.000000 0.000000
vn 0.402329 0.593739 -0.696854
vn -0.820875 -0.389194 0.417962
vn -0.971965 -0.166258 0.166258
vn -0.820875 -0.389195 -0.417962
vn -0.971965 -0.166258 -0.166258
vn 0.232209 -0.972666 0.000000
vn 0.657371 -0.753567 0.000000
vn 0.421639 -0.906764 -0.000000
vn 0.000000 -1.000000 0.000000
vn 0.351022 0.000000 0.936367
vn 0.657371 0.000000 0.753567
vn 0.351022 0.936367 0.000000
vn 0.657371 0.753567 0.000000
vn 0.351022 0.000000 -0.936367
vn 0.657371 0.000000 -0.753567
vn -0.440105 -0.897946 0.000000
vn -0.750252 -0.661152 0.000000
vn -0.440105 0.000000 0.897946
vn -0.750252 0.000000 0.661152
vn -0.440105 0.897946 0.000000
vn -0.750252 0.661152 0.000000
vn -0.440105 0.000000 -0.897946
vn -0.750252 0.000000 -0.661152
vn 0.000000 -1.000000 0.000000
vn 0.000000 0.000000 1.000000
vn 0.000000 1.000000 0.000000
vn 0.000002 0.000000 -1.000000
vn -0.946164 -0.323689 0.000000
vn -0.946163 0.000000 -0.323689
vn -0.946163 0.000000 0.323689
vn -0.820875 0.389195 -0.417962
vn -0.971965 0.166258 -0.166258
vn -0.946164 0.323689 0.000000
vn 0.210719 -0.904704 -0.370282
vn -0.820874 0.389194 0.417963
vn -0.971965 0.166258 0.166258
vn 0.804658 0.593739 0.000000
vn -0.402329 0.593739 0.696854
vn -0.402329 0.593739 0.696854
vn 0.402329 0.593739 0.696854
vn 0.439634 -0.462302 -0.770064
vn 0.789174 -0.347945 -0.506102
vn 0.439634 -0.462302 0.770064
vn 0.789174 -0.347945 0.506102
vn 0.439634 0.462302 0.770064
vn 0.789174 0.347945 0.506102
vn 0.439634 0.462302 -0.770064
vn 0.789174 0.347945 -0.506102
vn -0.558240 -0.559246 -0.612872
vn -0.558240 -0.559246 0.612872
vn -0.558240 0.559246 0.612872
vn -0.558240 0.559246 -0.612872
vn 0.000001 -0.707107 -0.707107
vn 0.000000 -0.707107 0.707107
vn 0.000000 0.707106 0.707108
vn 0.000001 0.707106 -0.707108
vn -0.402328 -0.593740 0.696853
vn 0.402328 -0.593740 0.696853
vn -0.931739 0.363130 0.000000
vn -0.474392 0.283226 -0.833508
vn -0.495120 0.346517 -0.796732
vn -0.912325 0.409467 0.000000
vn 0.804657 -0.593740 0.000000
vn -0.474392 0.283226 0.833508
vn -0.495120 0.346517 0.796732
vn 0.474392 0.283226 0.833508
vn 0.931739 0.363130 0.000000
vn 0.210718 -0.904704 0.370282
vn 0.000000 -1.000000 0.000000
vn 0.482826 -0.875717 0.000000
vn 0.254744 -0.871236 0.419586
vn -0.254744 -0.871236 0.419586
vn -0.500000 0.000000 0.866025
vn 0.500000 0.000000 0.866025
vn -0.482826 -0.875717 0.000000
vn -0.804657 -0.593740 -0.000000
vn -0.945102 -0.326776 0.000000
vn -0.478354 -0.878167 0.000000
vn -0.210719 -0.904704 -0.370282
vn -0.470720 -0.323862 -0.820692
vn -0.500000 0.000000 -0.866025
vn -1.000000 0.000000 0.000000
vn 0.527479 -0.265925 0.806876
vn -0.527479 -0.265925 0.806876
vn -0.402328 -0.593740 -0.696853
vn 0.402328 -0.593740 -0.696853
vn -0.500000 0.000000 -0.866025
vn 0.470720 -0.323862 -0.820693
vn 0.500000 0.000000 -0.866025
vn 0.254744 -0.871236 -0.419586
vn 1.000000 0.000000 0.000000
vn 0.500000 0.000000 -0.866025
vn -0.242489 -0.970154 0.000000
vn -0.121244 -0.970154 -0.210001
vn -0.470720 -0.323862 0.820692
vn -0.500000 0.000000 0.866025
vn 0.500000 0.000000 0.866025
vn 0.470720 -0.323862 0.820693
vn -0.210719 -0.904704 0.370282
vn -1.000000 0.000000 0.000000
vn 0.474392 0.283226 -0.833508
vn 0.495120 0.346517 0.796732
vn 0.912325 0.409467 0.000000
vn 0.495120 0.346517 -0.796732
vn 0.959694 -0.281049 0.000000
vn -0.959694 -0.281049 0.000000
vn -0.527479 -0.265925 -0.806876
vn 0.527479 -0.265925 -0.806876
vn -0.254744 -0.871236 -0.419586
vn -0.351022 0.000000 -0.936367
vn -1.000000 0.000000 0.000000
vn -0.351022 0.000000 0.936367
vn 0.820875 -0.389194 0.417962
vn 0.971965 -0.166258 0.166258
vn 0.820875 -0.389195 -0.417962
vn 0.971965 -0.166258 -0.166258
vn -0.232209 -0.972666 0.000000
vn -0.657371 -0.753567 0.000000
vn -0.657371 0.000000 0.753567
vn -0.351022 0.936367 0.000000
vn -0.657371 0.753567 0.000000
vn -0.657371 0.000000 -0.753567
vn 0.440105 -0.897946 0.000000
vn 0.750252 -0.661152 0.000000
vn 0.440105 0.000000 0.897946
vn 0.750252 0.000000 0.661152
vn 0.440105 0.897946 0.000000
vn 0.750252 0.661152 0.000000
vn 0.440105 0.000000 -0.897946
vn 0.750252 0.000000 -0.661152
vn -0.000002 0.000000 -1.000000
vn 0.946164 -0.323689 0.000000
vn 0.946163 0.000000 -0.323689
vn 0.946163 0.000000 0.323689
vn 0.820875 0.389195 -0.417963
vn 0.971965 0.166258 -0.166258
vn 0.946164 0.323689 0.000000
vn 0.820874 0.389194 0.417963
vn 0.971965 0.166258 0.166258
vn -0.439634 0.462302 -0.770064
vn -0.439634 -0.462302 -0.770064
vn -0.439634 0.462302 0.770064
vn -0.439634 -0.462302 0.770064
vn -0.789174 -0.347945 -0.506102
vn -0.789174 -0.347945 0.506102
vn -0.789174 0.347945 0.506102
vn -0.789174 0.347945 -0.506102
vn 0.558240 -0.559246 -0.612872
vn 0.558240 -0.559246 0.612872
vn 0.558240 0.559246 0.612872
vn 0.558240 0.559246 -0.612872
vn -0.000001 -0.707107 -0.707107
vn -0.000001 0.707106 -0.707108
vn 0.945102 -0.326776 -0.000000
vn -0.121244 -0.970154 0.210001
vn 0.242489 -0.970154 0.000000
vn 0.121244 -0.970154 -0.210001
vn 0.121244 -0.970154 0.210001
# 161 normals

usemtl Hammer
s 1
f 88/1/1 89/2/2 101/3/2 100/4/1
f 89/2/2 97/9/4 102/10/4 101/3/2
f 97/9/4 85/66/40 105/67/40 102/10/4
f 87/68/41 88/1/1 100/4/1 99/69/42
f 91/70/43 87/68/41 99/69/42 98/71/43
f 85/72/40 91/70/43 98/71/43 105/73/40
f 93/86/60 92/87/61 112/88/61 107/89/60
f 58/90/62 59/91/63 113/92/64 115/93/65
f 92/87/61 104/94/66 103/95/66 112/88/61
f 57/96/67 58/90/62 115/93/65 111/97/68
f 104/94/66 92/87/61 56/98/69 55/99/70
f 54/101/72 121/102/73 67/103/74
f 54/101/72 67/103/74 123/104/75
f 63/105/76 87/68/41 91/70/43 64/106/77
f 54/101/72 123/104/75 68/107/78
f 107/89/60 99/69/42 100/4/1 106/108/79
f 65/113/84 89/2/2 88/1/1 62/114/85
f 70/115/86 74/116/87 123/104/75 67/117/74
f 114/118/88 101/3/2 102/10/4 108/119/89
f 54/101/72 73/123/93 121/102/73
f 61/124/94 85/66/40 97/9/4 66/125/95
f 85/72/40 61/133/94 64/106/77 91/70/43
f 87/68/41 63/105/76 62/114/85 88/1/1
f 94/134/79 58/90/62 57/96/67 93/86/60
f 96/135/89 60/136/104 59/91/63 95/137/88
f 95/137/88 59/91/63 58/90/62 94/134/79
f 93/86/60 107/89/60 106/108/79 94/134/79
f 95/137/88 114/118/88 108/119/89 96/135/89
f 94/134/79 106/108/79 114/118/88 95/137/88
f 96/135/89 108/119/89 103/138/66 104/139/66
f 56/98/69 110/140/105 109/141/106 55/99/70
f 57/96/67 111/97/68 110/140/105 56/98/69
f 60/136/104 116/142/107 113/92/64 59/91/63
f 55/143/70 109/144/106 116/142/107 60/136/104
f 110/140/105 70/115/86 69/145/108 109/141/106
f 111/97/68 74/116/87 70/115/86 110/140/105
f 115/93/65 71/146/109 74/116/87 111/97/68
f 113/92/64 72/147/110 71/146/109 115/93/65
f 116/142/107 120/148/111 72/147/110 113/92/64
f 109/144/106 69/149/108 120/148/111 116/142/107
f 70/115/86 67/117/74 121/150/73 69/145/108
f 71/146/109 68/107/78 123/104/75 74/116/87
f 72/147/110 125/151/112 68/107/78 71/146/109
f 120/148/111 73/152/93 125/151/112 72/147/110
f 69/149/108 121/153/73 73/152/93 120/148/111
f 92/87/61 93/86/60 57/96/67 56/98/69
f 96/135/89 104/139/66 55/143/70 60/136/104
f 112/88/61 103/95/66 105/73/40 98/71/43
f 54/101/72 125/151/112 73/123/93
f 54/101/72 68/107/78 125/151/112
f 98/71/43 99/69/42 107/89/60 112/88/61
f 102/10/4 105/67/40 103/138/66 108/119/89
f 97/9/4 89/2/2 65/113/84 66/125/95
f 100/4/1 101/3/2 114/118/88 106/108/79
s 2
f 43/5/3 38/6/3 37/7/3 41/8/3
f 40/60/3 47/61/3 46/62/3 44/63/3
f 41/8/3 40/60/3 44/63/3 43/5/3
s 3
f 27/11/5 32/12/5 42/13/6 35/14/6
f 16/25/53 24/77/53 32/12/5 27/11/5
s 4
f 23/15/7 30/16/7 48/17/8 31/18/8
f 12/75/52 22/34/52 30/16/7 23/15/7
s 5
f 3/19/9 12/20/10 24/21/10 13/22/9 50/23/12
s 6
f 18/24/13 16/25/14 28/26/14 17/27/13
f 138/160/115 18/24/13 17/27/13 137/161/115
f 138/160/115 137/161/115 146/175/122 136/176/122
s 7
f 9/28/15 14/29/16 26/30/16 15/31/15
f 129/177/123 135/178/123 144/179/124 134/180/124
f 9/28/15 15/31/15 135/178/123 129/177/123
s 8
f 6/32/17 10/33/18 22/34/18 11/35/17
f 11/35/17 131/154/113 128/155/113 6/32/17
f 128/155/113 131/154/113 140/181/125 130/182/125
s 9
f 12/20/19 23/36/20 32/37/20 24/21/19
f 23/36/20 31/42/31 42/45/31 32/37/20
s 10
f 16/25/21 27/11/22 36/38/22 28/26/21
f 27/11/22 35/14/33 39/48/33 36/38/22
s 11
f 14/29/23 25/39/24 34/40/24 26/30/23
f 25/39/24 33/49/36 45/52/36 34/40/24
s 12
f 10/33/25 21/41/26 30/16/26 22/34/25
f 21/41/26 29/53/32 48/17/32 30/16/26
s 13
f 31/42/27 40/43/27 41/44/27 42/45/27
f 149/190/27 5/191/27 7/192/27 8/193/27
s 14
f 35/14/28 37/46/28 38/47/28 39/48/28
f 153/163/28 19/194/28 20/195/28 1/196/28
s 15
f 33/49/29 43/50/29 44/51/29 45/52/29
f 151/197/29 51/198/29 2/199/29 4/200/29
s 16
f 29/53/30 46/54/30 47/55/30 48/17/30
s 17
f 21/41/34 34/56/34 45/57/35 29/53/35
f 10/33/55 26/81/55 34/56/34 21/41/34
s 18
f 50/58/11 52/59/37 3/19/9
f 50/58/11 13/22/9 49/100/71
f 82/109/80 124/110/81 126/111/82 90/112/83
f 86/127/98 75/128/99 78/129/100 80/130/101
f 86/127/98 122/131/102 124/110/81 82/109/80
f 90/112/83 126/111/82 52/132/37 84/121/91
f 127/170/120 124/171/81 133/172/120 142/173/121 132/174/12
f 124/171/81 127/170/120 126/206/82
f 133/172/120 122/225/102 49/100/71 13/22/9
f 52/59/37 126/206/82 127/170/120 3/19/9
f 124/171/81 122/225/102 133/172/120
f 76/126/103 75/128/99 86/127/98 82/109/80
f 86/127/98 80/130/101 49/226/71 122/131/102
f 78/129/100 81/227/3 79/228/157 80/130/101
f 79/229/157 84/121/91 52/132/37 50/230/11
f 80/130/101 79/228/157 50/232/11 49/226/71
f 84/121/91 79/229/157 81/231/3 83/122/92
s 19
f 25/64/38 36/38/38 39/48/39 33/65/39
f 14/79/54 28/26/54 36/38/38 25/64/38
s 20
f 3/74/44 11/35/44 22/34/45 12/75/45
f 3/74/44 127/214/144 131/154/144 11/35/44
f 127/214/144 132/217/147 140/181/147 131/154/144
s 21
f 18/24/46 13/76/46 24/77/47 16/25/47
f 18/24/46 138/160/146 133/216/146 13/76/46
f 138/160/146 136/176/148 142/218/148 133/216/146
s 22
f 9/78/48 17/27/48 28/26/49 14/79/49
f 9/78/48 129/215/145 137/161/145 17/27/48
f 129/215/145 134/219/149 146/175/149 137/161/145
s 23
f 6/32/50 15/80/50 26/81/51 10/33/51
f 6/32/50 128/155/143 135/213/143 15/80/50
f 128/155/143 130/182/150 144/220/150 135/213/143
s 24
f 31/18/56 48/17/56 47/55/56 40/82/56
s 25
f 35/14/57 42/13/57 41/83/57 37/46/57
f 153/163/57 1/196/57 7/222/57 5/164/57
s 26
f 33/65/58 39/48/58 38/47/58 43/84/58
f 151/212/58 4/223/58 20/195/58 19/194/58
s 27
f 29/53/59 45/57/59 44/85/59 46/54/59
s 28
f 77/120/90 90/112/83 84/121/91 83/122/92
f 90/112/83 77/120/90 76/126/103 82/109/80
s 29
f 62/114/96 76/126/96 77/120/97 65/113/97
f 62/114/96 63/105/158 75/128/158 76/126/96
f 61/124/159 66/125/160 83/122/160 81/231/159
f 63/105/158 64/106/161 78/129/161 75/128/158
f 66/125/160 65/113/97 77/120/97 83/122/160
f 64/106/161 61/133/159 81/227/159 78/129/161
s 30
f 8/156/114 7/157/114 4/158/114 2/159/114
f 7/157/114 1/207/114 20/208/114 4/158/114
f 8/156/114 2/159/114 117/209/114 118/210/114
s 31
f 145/162/116 153/163/117 5/164/117 150/165/116
f 136/176/152 145/162/116 150/165/116 142/218/152
s 32
f 141/166/118 149/167/119 119/168/119 148/169/118
f 132/217/151 141/166/118 148/169/118 140/181/151
s 33
f 132/183/126 142/173/126 150/184/127 141/185/127
f 141/185/127 150/184/127 5/191/135 149/190/135
s 34
f 136/176/128 146/175/128 53/186/129 145/162/129
f 145/162/129 53/186/129 19/194/137 153/163/137
s 35
f 134/180/130 144/179/130 152/187/131 143/188/131
f 143/188/131 152/187/131 51/198/140 151/197/140
s 36
f 130/182/132 140/181/132 148/169/133 139/189/133
f 139/189/133 148/169/133 119/168/136 147/201/136
s 37
f 147/201/134 119/168/134 118/202/134 117/203/134
s 38
f 139/189/138 147/201/139 51/204/139 152/205/138
f 130/182/154 139/189/138 152/205/138 144/220/154
s 39
f 143/211/141 151/212/142 19/194/142 53/186/141
f 134/219/153 143/211/141 53/186/141 146/175/153
s 40
f 149/167/155 8/221/155 118/202/155 119/168/155
s 41
f 147/201/156 117/203/156 2/224/156 51/204/156

# 155 faces
